<svg viewBox="0 0 20 20" fill="none" xmlns="http://www.w3.org/2000/svg">
<path d="M11.028 0.00118214C11.7577 -0.00150826 12.4874 0.00553822 13.2169 0.0223194L13.4109 0.0290448C13.6349 0.0367311 13.8559 0.0463389 14.1229 0.0578683C15.1868 0.105907 15.9128 0.267319 16.5497 0.504632C17.2097 0.74867 17.7657 1.07918 18.3216 1.61337C18.83 2.09339 19.2234 2.67403 19.4746 3.31492C19.7216 3.92694 19.8896 4.62542 19.9396 5.6477C19.9516 5.90326 19.9616 6.11656 19.9696 6.33177L19.9756 6.51816C19.9933 7.21876 20.001 7.91956 19.9986 8.62035L19.9996 9.3371V10.5957C20.002 11.2968 19.9943 11.998 19.9766 12.6989L19.9706 12.8853C19.9626 13.1005 19.9526 13.3128 19.9406 13.5693C19.8906 14.5916 19.7206 15.2891 19.4746 15.9012C19.2242 16.5427 18.8307 17.1238 18.3216 17.6037C17.8216 18.092 17.217 18.47 16.5497 18.7114C15.9128 18.9488 15.1868 19.1102 14.1229 19.1582C13.8559 19.1697 13.6349 19.1793 13.4109 19.187L13.2169 19.1928C12.4874 19.2099 11.7577 19.2172 11.028 19.2149L10.282 19.2159H8.97312C8.24342 19.2182 7.51372 19.2109 6.78423 19.1938L6.59024 19.188C6.35286 19.1797 6.11554 19.1701 5.87827 19.1592C4.81433 19.1111 4.08837 18.9478 3.4504 18.7114C2.78312 18.4706 2.1787 18.0925 1.67949 17.6037C1.17056 17.1235 0.776761 16.5425 0.52555 15.9012C0.278563 15.2891 0.110571 14.5916 0.0605738 13.5693C0.0494373 13.3414 0.0394377 13.1133 0.0305754 12.8853L0.0255758 12.6989C0.00714031 11.998 -0.00119349 11.2968 0.000576971 10.5957V8.62035C-0.00221385 7.91956 0.00511989 7.21876 0.0225759 6.51816L0.0295755 6.33177C0.0375751 6.11656 0.0475746 5.90326 0.059574 5.6477C0.109571 4.62446 0.277563 3.9279 0.52455 3.31492C0.77591 2.67371 1.17048 2.09323 1.68049 1.61433C2.17936 1.12506 2.7834 0.746338 3.4504 0.504632C4.08837 0.267319 4.81333 0.105907 5.87827 0.0578683L6.59024 0.0290448L6.78423 0.0242411C7.51337 0.00653656 8.24274 -0.00147081 8.97212 0.000221429L11.028 0.00118214ZM10.0001 4.80509C9.3376 4.79609 8.67989 4.91368 8.06514 5.15104C7.45039 5.38839 6.89087 5.74078 6.41909 6.18771C5.94732 6.63464 5.57269 7.16721 5.31699 7.75446C5.06129 8.34172 4.92962 8.97194 4.92962 9.60852C4.92962 10.2451 5.06129 10.8753 5.31699 11.4626C5.57269 12.0498 5.94732 12.5824 6.41909 13.0293C6.89087 13.4763 7.45039 13.8286 8.06514 14.066C8.67989 14.3034 9.3376 14.4209 10.0001 14.4119C11.3261 14.4119 12.5978 13.9058 13.5354 13.0049C14.4731 12.104 14.9998 10.8821 14.9998 9.60804C14.9998 8.33396 14.4731 7.11207 13.5354 6.21116C12.5978 5.31025 11.3261 4.80509 10.0001 4.80509ZM10.0001 6.72665C10.3986 6.7196 10.7945 6.78891 11.1648 6.93054C11.5351 7.07217 11.8723 7.28327 12.1567 7.55153C12.4412 7.81978 12.6671 8.1398 12.8214 8.4929C12.9756 8.84599 13.0551 9.22509 13.0552 9.60803C13.0552 9.99097 12.9759 10.3701 12.8217 10.7232C12.6676 11.0764 12.4418 11.3965 12.1574 11.6648C11.8731 11.9332 11.536 12.1444 11.1657 12.2861C10.7955 12.4279 10.3996 12.4973 10.0011 12.4904C9.20546 12.4904 8.44243 12.1867 7.87985 11.6462C7.31727 11.1056 7.00122 10.3725 7.00122 9.60804C7.00122 8.84359 7.31727 8.11046 7.87985 7.56991C8.44243 7.02937 9.20546 6.72569 10.0011 6.72569L10.0001 6.72665ZM15.2498 3.36392C14.9272 3.37632 14.6221 3.50818 14.3984 3.73187C14.1748 3.95556 14.0498 4.25373 14.0498 4.56393C14.0498 4.87414 14.1748 5.17231 14.3984 5.396C14.6221 5.61969 14.9272 5.75154 15.2498 5.76395C15.5813 5.76395 15.8992 5.63742 16.1336 5.41219C16.368 5.18696 16.4997 4.88149 16.4997 4.56297C16.4997 4.24445 16.368 3.93898 16.1336 3.71375C15.8992 3.48853 15.5813 3.362 15.2498 3.362V3.36392Z" fill="#EF7B45"/>
</svg>
