<svg viewBox="0 0 21 20" fill="none" xmlns="http://www.w3.org/2000/svg">
<path d="M4.40714 2.13609C4.40684 2.70234 4.1744 3.24528 3.76095 3.64547C3.34749 4.04566 2.78689 4.27033 2.20247 4.27005C1.61804 4.26977 1.05767 4.04455 0.644631 3.64396C0.231589 3.24337 -0.000291935 2.7002 2.75844e-07 2.13396C0.000292487 1.56771 0.232734 1.02477 0.646189 0.624579C1.05965 0.224385 1.62025 -0.000282855 2.20467 2.67264e-07C2.78909 0.000283389 3.34946 0.225494 3.76251 0.626089C4.17555 1.02668 4.40743 1.56985 4.40714 2.13609ZM4.47324 5.85103H0.0661073V19.2163H4.47324V5.85103ZM11.4365 5.85103H7.05142V19.2163H11.3924V12.2027C11.3924 8.29564 16.648 7.93268 16.648 12.2027V19.2163H21V10.7509C21 4.16436 13.2214 4.40989 11.3924 7.64445L11.4365 5.85103Z" fill="#EF7B45"/>
</svg>
