<svg viewBox="0 0 198 139" fill="none" xmlns="http://www.w3.org/2000/svg">
<path d="M79 98.75L130.251 69.125L79 39.5V98.75ZM193.155 21.4288C194.439 26.07 195.328 32.2912 195.92 40.1912C196.611 48.0912 196.908 54.905 196.908 60.83L197.5 69.125C197.5 90.7513 195.92 106.65 193.155 116.821C190.686 125.709 184.959 131.436 176.071 133.905C171.43 135.189 162.938 136.078 149.903 136.67C137.065 137.361 125.314 137.658 114.451 137.658L98.75 138.25C57.3737 138.25 31.6 136.67 21.4288 133.905C12.5413 131.436 6.81375 125.709 4.345 116.821C3.06125 112.18 2.1725 105.959 1.58 98.0588C0.888751 90.1588 0.592499 83.345 0.592499 77.42L0 69.125C0 47.4987 1.58 31.6 4.345 21.4288C6.81375 12.5413 12.5413 6.81375 21.4288 4.345C26.07 3.06125 34.5625 2.1725 47.5975 1.58C60.435 0.888748 72.1862 0.592499 83.0487 0.592499L98.75 0C140.126 0 165.9 1.58 176.071 4.345C184.959 6.81375 190.686 12.5413 193.155 21.4288Z" fill="#EF7B45"/>
</svg>
