<svg width="37" height="37" viewBox="0 0 37 37" fill="none" xmlns="http://www.w3.org/2000/svg">
<circle cx="18.5" cy="18.5" r="18.5" fill="#EF7B45"/>
<path d="M11.9508 16.7642L14.0907 17.6685C14.3468 17.157 14.612 16.6637 14.8864 16.1887C15.1607 15.7137 15.4625 15.2387 15.7918 14.7638L14.2554 14.4623L11.9508 16.7642ZM15.8466 19.0387L18.9743 22.1352C19.7425 21.8429 20.5656 21.3954 21.4435 20.7925C22.3215 20.1896 23.1446 19.5045 23.9128 18.7372C25.1931 17.4584 26.1947 16.0382 26.9175 14.4766C27.6404 12.9149 27.9557 11.4761 27.8635 10.16C26.5466 10.0687 25.1017 10.384 23.5287 11.106C21.9557 11.8279 20.529 12.828 19.2487 14.1061C18.4805 14.8734 17.7946 15.6955 17.191 16.5724C16.5874 17.4493 16.1393 18.2714 15.8466 19.0387ZM20.7302 17.2575C20.3095 16.8373 20.0992 16.3214 20.0992 15.7097C20.0992 15.0981 20.3095 14.5818 20.7302 14.1609C21.1509 13.7407 21.6722 13.5306 22.2941 13.5306C22.9159 13.5306 23.4372 13.7407 23.8579 14.1609C24.2786 14.5811 24.4889 15.0973 24.4889 15.7097C24.4889 16.3221 24.2786 16.838 23.8579 17.2575C23.4372 17.6776 22.9159 17.8877 22.2941 17.8877C21.6722 17.8877 21.1509 17.6776 20.7302 17.2575ZM21.2515 26.0539L23.5561 23.752L23.2543 22.2175C22.7788 22.5463 22.3032 22.843 21.8276 23.1075C21.3521 23.3721 20.8582 23.6326 20.3461 23.8891L21.2515 26.0539ZM29.8389 8.15956C30.1864 10.3701 29.9717 12.5214 29.1947 14.6136C28.4177 16.7057 27.0778 18.7011 25.1748 20.5996L25.7235 23.3136C25.7967 23.679 25.7784 24.0352 25.6687 24.3823C25.5589 24.7294 25.376 25.0309 25.1199 25.2866L20.5107 29.8904L18.2061 24.4919L13.5146 19.806L8.10974 17.5041L12.6915 12.9003C12.9476 12.6446 13.2541 12.4619 13.6112 12.3523C13.9682 12.2427 14.3293 12.2244 14.6943 12.2975L17.4105 12.8455C19.3127 10.9456 21.3064 9.6028 23.3915 8.81724C25.4766 8.03168 27.6257 7.81245 29.8389 8.15956ZM10.0577 23.2862C10.6979 22.6468 11.48 22.3227 12.404 22.3139C13.328 22.3052 14.1098 22.6201 14.7492 23.2588C15.3894 23.8982 15.7051 24.6794 15.6963 25.6023C15.6875 26.5253 15.3627 27.3061 14.7218 27.9448C14.2645 28.4015 13.5011 28.7943 12.4314 29.1231C11.3618 29.4519 9.88466 29.7442 8 30C8.25607 28.1183 8.54872 26.6429 8.87795 25.5738C9.20718 24.5047 9.60042 23.7422 10.0577 23.2862ZM11.6215 24.8208C11.4386 25.0035 11.2557 25.3371 11.0728 25.8215C10.8899 26.306 10.7619 26.7945 10.6887 27.2871C11.1826 27.214 11.672 27.0905 12.1571 26.9166C12.6421 26.7427 12.9758 26.5647 13.1579 26.3828C13.3774 26.1635 13.4963 25.8986 13.5146 25.5881C13.5329 25.2775 13.4323 25.0126 13.2128 24.7934C12.9933 24.5741 12.7281 24.4689 12.4172 24.4777C12.1062 24.4865 11.841 24.6008 11.6215 24.8208Z" fill="white"/>
</svg>
