<svg width="37" height="37" viewBox="0 0 37 37" fill="none" xmlns="http://www.w3.org/2000/svg">
<circle cx="18.5" cy="18.5" r="18.5" fill="#23A8F2"/>
<path d="M19.0002 17C20.0611 17 21.0785 16.5786 21.8286 15.8284C22.5788 15.0783 23.0002 14.0609 23.0002 13C23.0002 11.9391 22.5788 10.9217 21.8286 10.1716C21.0785 9.42143 20.0611 9 19.0002 9C17.9393 9 16.9219 9.42143 16.1718 10.1716C15.4216 10.9217 15.0002 11.9391 15.0002 13C15.0002 14.0609 15.4216 15.0783 16.1718 15.8284C16.9219 16.5786 17.9393 17 19.0002 17ZM12.5002 20C13.1632 20 13.7991 19.7366 14.268 19.2678C14.7368 18.7989 15.0002 18.163 15.0002 17.5C15.0002 16.837 14.7368 16.2011 14.268 15.7322C13.7991 15.2634 13.1632 15 12.5002 15C11.8371 15 11.2013 15.2634 10.7324 15.7322C10.2636 16.2011 10.0002 16.837 10.0002 17.5C10.0002 18.163 10.2636 18.7989 10.7324 19.2678C11.2013 19.7366 11.8371 20 12.5002 20ZM28.0002 17.5C28.0002 18.163 27.7368 18.7989 27.268 19.2678C26.7991 19.7366 26.1632 20 25.5002 20C24.8371 20 24.2013 19.7366 23.7324 19.2678C23.2636 18.7989 23.0002 18.163 23.0002 17.5C23.0002 16.837 23.2636 16.2011 23.7324 15.7322C24.2013 15.2634 24.8371 15 25.5002 15C26.1632 15 26.7991 15.2634 27.268 15.7322C27.7368 16.2011 28.0002 16.837 28.0002 17.5ZM19.0002 18C20.3263 18 21.598 18.5268 22.5357 19.4645C23.4734 20.4021 24.0002 21.6739 24.0002 23L24 27H14L14.0002 23C14.0002 21.6739 14.527 20.4021 15.4647 19.4645C16.4023 18.5268 17.6741 18 19.0002 18ZM12.0002 23C12.0002 22.307 12.1002 21.638 12.2882 21.006L12.1182 21.02C11.2611 21.1141 10.4689 21.5213 9.89345 22.1635C9.31805 22.8057 8.99996 23.6377 9.00019 24.5L9 27H12L12.0002 23ZM29 27L29.0002 24.5C29.0003 23.6084 28.6601 22.7503 28.0491 22.101C27.438 21.4516 26.6022 21.06 25.7122 21.006C25.8992 21.638 26.0002 22.307 26.0002 23L26 27H29Z" fill="white"/>
</svg>
