<svg viewBox="0 0 19 11" fill="none" xmlns="http://www.w3.org/2000/svg">
<path d="M18.575 2.14999L10.175 10.575C10.075 10.675 9.96667 10.746 9.85 10.788C9.73333 10.83 9.60833 10.8507 9.475 10.85C9.34167 10.85 9.21667 10.8293 9.1 10.788C8.98333 10.7467 8.875 10.6757 8.775 10.575L0.35 2.14999C0.116666 1.91666 -4.03238e-07 1.62499 -4.18537e-07 1.27499C-4.33836e-07 0.924991 0.125 0.624991 0.375 0.374991C0.625 0.124991 0.916666 -8.62314e-06 1.25 -8.63771e-06C1.58333 -8.65228e-06 1.875 0.124991 2.125 0.374991L9.475 7.72499L16.825 0.374991C17.0583 0.141657 17.346 0.0249903 17.688 0.0249903C18.03 0.0249902 18.3257 0.14999 18.575 0.39999C18.825 0.64999 18.95 0.941657 18.95 1.27499C18.95 1.60832 18.825 1.89999 18.575 2.14999Z"  fill="#CFCFCF"/>
</svg>
