<svg width="37" height="37" viewBox="0 0 37 37" fill="none" xmlns="http://www.w3.org/2000/svg">
<circle cx="18.5" cy="18.5" r="18.5" fill="#F2F2F2"/>
<path d="M17.4659 22.0909V21.9886C17.4773 20.9034 17.5909 20.0398 17.8068 19.3977C18.0227 18.7557 18.3295 18.2358 18.7273 17.8381C19.125 17.4403 19.6023 17.0739 20.1591 16.7386C20.4943 16.5341 20.7955 16.2926 21.0625 16.0142C21.3295 15.7301 21.5398 15.4034 21.6932 15.0341C21.8523 14.6648 21.9318 14.2557 21.9318 13.8068C21.9318 13.25 21.8011 12.767 21.5398 12.358C21.2784 11.9489 20.929 11.6335 20.4915 11.4119C20.054 11.1903 19.5682 11.0795 19.0341 11.0795C18.5682 11.0795 18.1193 11.1761 17.6875 11.3693C17.2557 11.5625 16.8949 11.8665 16.6051 12.2812C16.3153 12.696 16.1477 13.2386 16.1023 13.9091H13.9545C14 12.9432 14.25 12.1165 14.7045 11.429C15.1648 10.7415 15.7699 10.2159 16.5199 9.85227C17.2756 9.48864 18.1136 9.30682 19.0341 9.30682C20.0341 9.30682 20.9034 9.50568 21.642 9.90341C22.3864 10.3011 22.9602 10.8466 23.3636 11.5398C23.7727 12.233 23.9773 13.0227 23.9773 13.9091C23.9773 14.5341 23.8807 15.0994 23.6875 15.6051C23.5 16.1108 23.2273 16.5625 22.8693 16.9602C22.517 17.358 22.0909 17.7102 21.5909 18.017C21.0909 18.3295 20.6903 18.6591 20.3892 19.0057C20.0881 19.3466 19.8693 19.7528 19.733 20.2244C19.5966 20.696 19.5227 21.2841 19.5114 21.9886V22.0909H17.4659ZM18.5568 27.1364C18.1364 27.1364 17.7756 26.9858 17.4744 26.6847C17.1733 26.3835 17.0227 26.0227 17.0227 25.6023C17.0227 25.1818 17.1733 24.821 17.4744 24.5199C17.7756 24.2187 18.1364 24.0682 18.5568 24.0682C18.9773 24.0682 19.3381 24.2187 19.6392 24.5199C19.9403 24.821 20.0909 25.1818 20.0909 25.6023C20.0909 25.8807 20.0199 26.1364 19.8778 26.3693C19.7415 26.6023 19.5568 26.7898 19.3239 26.9318C19.0966 27.0682 18.8409 27.1364 18.5568 27.1364Z" fill="#302A27"/>
</svg>
