<svg width="24" height="1144" viewBox="0 0 24 1144" fill="none" xmlns="http://www.w3.org/2000/svg">
<path d="M11.4697 1142.53C11.7626 1142.82 12.2374 1142.82 12.5303 1142.53L17.3033 1137.76C17.5962 1137.46 17.5962 1136.99 17.3033 1136.7C17.0104 1136.4 16.5355 1136.4 16.2426 1136.7L12 1140.94L7.75736 1136.7C7.46447 1136.4 6.98959 1136.4 6.6967 1136.7C6.40381 1136.99 6.40381 1137.46 6.6967 1137.76L11.4697 1142.53ZM12.75 2L12.75 1.25L11.25 1.25L11.25 2L12.75 2ZM12.75 1142L12.75 1140.01L11.25 1140.01L11.25 1142L12.75 1142ZM12.75 1136.02L12.75 1132.03L11.25 1132.03L11.25 1136.02L12.75 1136.02ZM12.75 1128.05L12.75 1124.06L11.25 1124.06L11.25 1128.05L12.75 1128.05ZM12.75 1120.08L12.75 1116.09L11.25 1116.09L11.25 1120.08L12.75 1120.08ZM12.75 1112.1L12.75 1108.12L11.25 1108.12L11.25 1112.1L12.75 1112.1ZM12.75 1104.13L12.75 1100.15L11.25 1100.15L11.25 1104.13L12.75 1104.13ZM12.75 1096.16L12.75 1092.17L11.25 1092.17L11.25 1096.16L12.75 1096.16ZM12.75 1088.19L12.75 1084.2L11.25 1084.2L11.25 1088.19L12.75 1088.19ZM12.75 1080.22L12.75 1076.23L11.25 1076.23L11.25 1080.22L12.75 1080.22ZM12.75 1072.24L12.75 1068.26L11.25 1068.26L11.25 1072.24L12.75 1072.24ZM12.75 1064.27L12.75 1060.29L11.25 1060.29L11.25 1064.27L12.75 1064.27ZM12.75 1056.3L12.75 1052.31L11.25 1052.31L11.25 1056.3L12.75 1056.3ZM12.75 1048.33L12.75 1044.34L11.25 1044.34L11.25 1048.33L12.75 1048.33ZM12.75 1040.36L12.75 1036.37L11.25 1036.37L11.25 1040.36L12.75 1040.36ZM12.75 1032.38L12.75 1028.4L11.25 1028.4L11.25 1032.38L12.75 1032.38ZM12.75 1024.41L12.75 1020.43L11.25 1020.43L11.25 1024.41L12.75 1024.41ZM12.75 1016.44L12.75 1012.45L11.25 1012.45L11.25 1016.44L12.75 1016.44ZM12.75 1008.47L12.75 1004.48L11.25 1004.48L11.25 1008.47L12.75 1008.47ZM12.75 1000.5L12.75 996.511L11.25 996.511L11.25 1000.5L12.75 1000.5ZM12.75 992.524L12.75 988.538L11.25 988.538L11.25 992.524L12.75 992.524ZM12.75 984.552L12.75 980.566L11.25 980.566L11.25 984.552L12.75 984.552ZM12.75 976.58L12.75 972.594L11.25 972.594L11.25 976.58L12.75 976.58ZM12.75 968.608L12.75 964.622L11.25 964.622L11.25 968.608L12.75 968.608ZM12.75 960.636L12.75 956.65L11.25 956.65L11.25 960.636L12.75 960.636ZM12.75 952.664L12.75 948.678L11.25 948.678L11.25 952.664L12.75 952.664ZM12.75 944.692L12.75 940.706L11.25 940.706L11.25 944.692L12.75 944.692ZM12.75 936.72L12.75 932.734L11.25 932.734L11.25 936.72L12.75 936.72ZM12.75 928.748L12.75 924.762L11.25 924.762L11.25 928.748L12.75 928.748ZM12.75 920.776L12.75 916.79L11.25 916.79L11.25 920.776L12.75 920.776ZM12.75 912.804L12.75 908.818L11.25 908.818L11.25 912.804L12.75 912.804ZM12.75 904.832L12.75 900.846L11.25 900.846L11.25 904.832L12.75 904.832ZM12.75 896.86L12.75 892.874L11.25 892.874L11.25 896.86L12.75 896.86ZM12.75 888.888L12.75 884.902L11.25 884.902L11.25 888.888L12.75 888.888ZM12.75 880.916L12.75 876.93L11.25 876.93L11.25 880.916L12.75 880.916ZM12.75 872.944L12.75 868.958L11.25 868.958L11.25 872.944L12.75 872.944ZM12.75 864.972L12.75 860.986L11.25 860.986L11.25 864.972L12.75 864.972ZM12.75 857L12.75 853.014L11.25 853.014L11.25 857L12.75 857ZM12.75 849.028L12.75 845.042L11.25 845.042L11.25 849.028L12.75 849.028ZM12.75 841.056L12.75 837.07L11.25 837.07L11.25 841.056L12.75 841.056ZM12.75 833.084L12.75 829.098L11.25 829.098L11.25 833.084L12.75 833.084ZM12.75 825.112L12.75 821.126L11.25 821.126L11.25 825.112L12.75 825.112ZM12.75 817.14L12.75 813.154L11.25 813.154L11.25 817.14L12.75 817.14ZM12.75 809.168L12.75 805.182L11.25 805.182L11.25 809.168L12.75 809.168ZM12.75 801.196L12.75 797.21L11.25 797.21L11.25 801.196L12.75 801.196ZM12.75 793.224L12.75 789.238L11.25 789.238L11.25 793.224L12.75 793.224ZM12.75 785.252L12.75 781.266L11.25 781.266L11.25 785.252L12.75 785.252ZM12.75 777.28L12.75 773.294L11.25 773.294L11.25 777.28L12.75 777.28ZM12.75 769.308L12.75 765.322L11.25 765.322L11.25 769.308L12.75 769.308ZM12.75 761.336L12.75 757.35L11.25 757.35L11.25 761.336L12.75 761.336ZM12.75 753.364L12.75 749.377L11.25 749.377L11.25 753.364L12.75 753.364ZM12.75 745.391L12.75 741.405L11.25 741.405L11.25 745.391L12.75 745.391ZM12.75 737.419L12.75 733.433L11.25 733.433L11.25 737.419L12.75 737.419ZM12.75 729.447L12.75 725.461L11.25 725.461L11.25 729.447L12.75 729.447ZM12.75 721.475L12.75 717.489L11.25 717.489L11.25 721.475L12.75 721.475ZM12.75 713.503L12.75 709.517L11.25 709.517L11.25 713.503L12.75 713.503ZM12.75 705.531L12.75 701.545L11.25 701.545L11.25 705.531L12.75 705.531ZM12.75 697.559L12.75 693.573L11.25 693.573L11.25 697.559L12.75 697.559ZM12.75 689.587L12.75 685.601L11.25 685.601L11.25 689.587L12.75 689.587ZM12.75 681.615L12.75 677.629L11.25 677.629L11.25 681.615L12.75 681.615ZM12.75 673.643L12.75 669.657L11.25 669.657L11.25 673.643L12.75 673.643ZM12.75 665.671L12.75 661.685L11.25 661.685L11.25 665.671L12.75 665.671ZM12.75 657.699L12.75 653.713L11.25 653.713L11.25 657.699L12.75 657.699ZM12.75 649.727L12.75 645.741L11.25 645.741L11.25 649.727L12.75 649.727ZM12.75 641.755L12.75 637.769L11.25 637.769L11.25 641.755L12.75 641.755ZM12.75 633.783L12.75 629.797L11.25 629.797L11.25 633.783L12.75 633.783ZM12.75 625.811L12.75 621.825L11.25 621.825L11.25 625.811L12.75 625.811ZM12.75 617.839L12.75 613.853L11.25 613.853L11.25 617.839L12.75 617.839ZM12.75 609.867L12.75 605.881L11.25 605.881L11.25 609.867L12.75 609.867ZM12.75 601.895L12.75 597.909L11.25 597.909L11.25 601.895L12.75 601.895ZM12.75 593.923L12.75 589.937L11.25 589.937L11.25 593.923L12.75 593.923ZM12.75 585.951L12.75 581.965L11.25 581.965L11.25 585.951L12.75 585.951ZM12.75 577.979L12.75 573.992L11.25 573.992L11.25 577.979L12.75 577.979ZM12.75 570.007L12.75 566.02L11.25 566.02L11.25 570.007L12.75 570.007ZM12.75 562.034L12.75 558.048L11.25 558.048L11.25 562.034L12.75 562.034ZM12.75 554.062L12.75 550.076L11.25 550.076L11.25 554.062L12.75 554.062ZM12.75 546.09L12.75 542.104L11.25 542.104L11.25 546.09L12.75 546.09ZM12.75 538.118L12.75 534.132L11.25 534.132L11.25 538.118L12.75 538.118ZM12.75 530.146L12.75 526.16L11.25 526.16L11.25 530.146L12.75 530.146ZM12.75 522.174L12.75 518.188L11.25 518.188L11.25 522.174L12.75 522.174ZM12.75 514.202L12.75 510.216L11.25 510.216L11.25 514.202L12.75 514.202ZM12.75 506.23L12.75 502.244L11.25 502.244L11.25 506.23L12.75 506.23ZM12.75 498.258L12.75 494.272L11.25 494.272L11.25 498.258L12.75 498.258ZM12.75 490.286L12.75 486.3L11.25 486.3L11.25 490.286L12.75 490.286ZM12.75 482.314L12.75 478.328L11.25 478.328L11.25 482.314L12.75 482.314ZM12.75 474.342L12.75 470.356L11.25 470.356L11.25 474.342L12.75 474.342ZM12.75 466.37L12.75 462.384L11.25 462.384L11.25 466.37L12.75 466.37ZM12.75 458.398L12.75 454.412L11.25 454.412L11.25 458.398L12.75 458.398ZM12.75 450.426L12.75 446.44L11.25 446.44L11.25 450.426L12.75 450.426ZM12.75 442.454L12.75 438.468L11.25 438.468L11.25 442.454L12.75 442.454ZM12.75 434.482L12.75 430.496L11.25 430.496L11.25 434.482L12.75 434.482ZM12.75 426.51L12.75 422.524L11.25 422.524L11.25 426.51L12.75 426.51ZM12.75 418.538L12.75 414.552L11.25 414.552L11.25 418.538L12.75 418.538ZM12.75 410.566L12.75 406.58L11.25 406.58L11.25 410.566L12.75 410.566ZM12.75 402.594L12.75 398.607L11.25 398.607L11.25 402.594L12.75 402.594ZM12.75 394.621L12.75 390.635L11.25 390.635L11.25 394.621L12.75 394.621ZM12.75 386.649L12.75 382.663L11.25 382.663L11.25 386.649L12.75 386.649ZM12.75 378.677L12.75 374.691L11.25 374.691L11.25 378.677L12.75 378.677ZM12.75 370.705L12.75 366.719L11.25 366.719L11.25 370.705L12.75 370.705ZM12.75 362.733L12.75 358.747L11.25 358.747L11.25 362.733L12.75 362.733ZM12.75 354.761L12.75 350.775L11.25 350.775L11.25 354.761L12.75 354.761ZM12.75 346.789L12.75 342.803L11.25 342.803L11.25 346.789L12.75 346.789ZM12.75 338.817L12.75 334.831L11.25 334.831L11.25 338.817L12.75 338.817ZM12.75 330.845L12.75 326.859L11.25 326.859L11.25 330.845L12.75 330.845ZM12.75 322.873L12.75 318.887L11.25 318.887L11.25 322.873L12.75 322.873ZM12.75 314.901L12.75 310.915L11.25 310.915L11.25 314.901L12.75 314.901ZM12.75 306.929L12.75 302.943L11.25 302.943L11.25 306.929L12.75 306.929ZM12.75 298.957L12.75 294.971L11.25 294.971L11.25 298.957L12.75 298.957ZM12.75 290.985L12.75 286.999L11.25 286.999L11.25 290.985L12.75 290.985ZM12.75 283.013L12.75 279.027L11.25 279.027L11.25 283.013L12.75 283.013ZM12.75 275.041L12.75 271.055L11.25 271.055L11.25 275.041L12.75 275.041ZM12.75 267.069L12.75 263.083L11.25 263.083L11.25 267.069L12.75 267.069ZM12.75 259.097L12.75 255.111L11.25 255.111L11.25 259.097L12.75 259.097ZM12.75 251.125L12.75 247.139L11.25 247.139L11.25 251.125L12.75 251.125ZM12.75 243.153L12.75 239.167L11.25 239.167L11.25 243.153L12.75 243.153ZM12.75 235.181L12.75 231.195L11.25 231.195L11.25 235.181L12.75 235.181ZM12.75 227.208L12.75 223.222L11.25 223.222L11.25 227.208L12.75 227.208ZM12.75 219.236L12.75 215.25L11.25 215.25L11.25 219.236L12.75 219.236ZM12.75 211.264L12.75 207.278L11.25 207.278L11.25 211.264L12.75 211.264ZM12.75 203.292L12.75 199.306L11.25 199.306L11.25 203.292L12.75 203.292ZM12.75 195.32L12.75 191.334L11.25 191.334L11.25 195.32L12.75 195.32ZM12.75 187.348L12.75 183.362L11.25 183.362L11.25 187.348L12.75 187.348ZM12.75 179.376L12.75 175.39L11.25 175.39L11.25 179.376L12.75 179.376ZM12.75 171.404L12.75 167.418L11.25 167.418L11.25 171.404L12.75 171.404ZM12.75 163.432L12.75 159.446L11.25 159.446L11.25 163.432L12.75 163.432ZM12.75 155.46L12.75 151.474L11.25 151.474L11.25 155.46L12.75 155.46ZM12.75 147.488L12.75 143.502L11.25 143.502L11.25 147.488L12.75 147.488ZM12.75 139.516L12.75 135.53L11.25 135.53L11.25 139.516L12.75 139.516ZM12.75 131.544L12.75 127.558L11.25 127.558L11.25 131.544L12.75 131.544ZM12.75 123.572L12.75 119.586L11.25 119.586L11.25 123.572L12.75 123.572ZM12.75 115.6L12.75 111.614L11.25 111.614L11.25 115.6L12.75 115.6ZM12.75 107.628L12.75 103.642L11.25 103.642L11.25 107.628L12.75 107.628ZM12.75 99.656L12.75 95.6701L11.25 95.6701L11.25 99.656L12.75 99.656ZM12.75 91.6841L12.75 87.6981L11.25 87.6981L11.25 91.6841L12.75 91.6841ZM12.75 83.7122L12.75 79.7262L11.25 79.7262L11.25 83.7122L12.75 83.7122ZM12.75 75.7402L12.75 71.7543L11.25 71.7543L11.25 75.7402L12.75 75.7402ZM12.75 67.7683L12.75 63.7824L11.25 63.7824L11.25 67.7683L12.75 67.7683ZM12.75 59.7964L12.75 55.8104L11.25 55.8104L11.25 59.7964L12.75 59.7964ZM12.75 51.8244L12.75 47.8385L11.25 47.8385L11.25 51.8244L12.75 51.8244ZM12.75 43.8526L12.75 39.8666L11.25 39.8666L11.25 43.8526L12.75 43.8526ZM12.75 35.8806L12.75 31.8946L11.25 31.8946L11.25 35.8806L12.75 35.8806ZM12.75 27.9087L12.75 23.9228L11.25 23.9228L11.25 27.9087L12.75 27.9087ZM12.75 19.9368L12.75 15.9508L11.25 15.9508L11.25 19.9368L12.75 19.9368ZM12.75 11.9648L12.75 7.97886L11.25 7.97886L11.25 11.9648L12.75 11.9648ZM12.75 3.99295L12.75 2L11.25 2L11.25 3.99295L12.75 3.99295ZM10.9393 1143.06C11.5251 1143.65 12.4749 1143.65 13.0607 1143.06L22.6066 1133.51C23.1924 1132.93 23.1924 1131.98 22.6066 1131.39C22.0208 1130.81 21.0711 1130.81 20.4853 1131.39L12 1139.88L3.51472 1131.39C2.92893 1130.81 1.97919 1130.81 1.3934 1131.39C0.807612 1131.98 0.807612 1132.93 1.3934 1133.51L10.9393 1143.06ZM13.5 2L13.5 0.5L10.5 0.5L10.5 2L13.5 2ZM13.5 1142L13.5 1140.01L10.5 1140.01L10.5 1142L13.5 1142ZM13.5 1136.02L13.5 1132.03L10.5 1132.03L10.5 1136.02L13.5 1136.02ZM13.5 1128.05L13.5 1124.06L10.5 1124.06L10.5 1128.05L13.5 1128.05ZM13.5 1120.08L13.5 1116.09L10.5 1116.09L10.5 1120.08L13.5 1120.08ZM13.5 1112.1L13.5 1108.12L10.5 1108.12L10.5 1112.1L13.5 1112.1ZM13.5 1104.13L13.5 1100.15L10.5 1100.15L10.5 1104.13L13.5 1104.13ZM13.5 1096.16L13.5 1092.17L10.5 1092.17L10.5 1096.16L13.5 1096.16ZM13.5 1088.19L13.5 1084.2L10.5 1084.2L10.5 1088.19L13.5 1088.19ZM13.5 1080.22L13.5 1076.23L10.5 1076.23L10.5 1080.22L13.5 1080.22ZM13.5 1072.24L13.5 1068.26L10.5 1068.26L10.5 1072.24L13.5 1072.24ZM13.5 1064.27L13.5 1060.29L10.5 1060.29L10.5 1064.27L13.5 1064.27ZM13.5 1056.3L13.5 1052.31L10.5 1052.31L10.5 1056.3L13.5 1056.3ZM13.5 1048.33L13.5 1044.34L10.5 1044.34L10.5 1048.33L13.5 1048.33ZM13.5 1040.36L13.5 1036.37L10.5 1036.37L10.5 1040.36L13.5 1040.36ZM13.5 1032.38L13.5 1028.4L10.5 1028.4L10.5 1032.38L13.5 1032.38ZM13.5 1024.41L13.5 1020.43L10.5 1020.43L10.5 1024.41L13.5 1024.41ZM13.5 1016.44L13.5 1012.45L10.5 1012.45L10.5 1016.44L13.5 1016.44ZM13.5 1008.47L13.5 1004.48L10.5 1004.48L10.5 1008.47L13.5 1008.47ZM13.5 1000.5L13.5 996.511L10.5 996.511L10.5 1000.5L13.5 1000.5ZM13.5 992.524L13.5 988.538L10.5 988.538L10.5 992.524L13.5 992.524ZM13.5 984.552L13.5 980.566L10.5 980.566L10.5 984.552L13.5 984.552ZM13.5 976.58L13.5 972.594L10.5 972.594L10.5 976.58L13.5 976.58ZM13.5 968.608L13.5 964.622L10.5 964.622L10.5 968.608L13.5 968.608ZM13.5 960.636L13.5 956.65L10.5 956.65L10.5 960.636L13.5 960.636ZM13.5 952.664L13.5 948.678L10.5 948.678L10.5 952.664L13.5 952.664ZM13.5 944.692L13.5 940.706L10.5 940.706L10.5 944.692L13.5 944.692ZM13.5 936.72L13.5 932.734L10.5 932.734L10.5 936.72L13.5 936.72ZM13.5 928.748L13.5 924.762L10.5 924.762L10.5 928.748L13.5 928.748ZM13.5 920.776L13.5 916.79L10.5 916.79L10.5 920.776L13.5 920.776ZM13.5 912.804L13.5 908.818L10.5 908.818L10.5 912.804L13.5 912.804ZM13.5 904.832L13.5 900.846L10.5 900.846L10.5 904.832L13.5 904.832ZM13.5 896.86L13.5 892.874L10.5 892.874L10.5 896.86L13.5 896.86ZM13.5 888.888L13.5 884.902L10.5 884.902L10.5 888.888L13.5 888.888ZM13.5 880.916L13.5 876.93L10.5 876.93L10.5 880.916L13.5 880.916ZM13.5 872.944L13.5 868.958L10.5 868.958L10.5 872.944L13.5 872.944ZM13.5 864.972L13.5 860.986L10.5 860.986L10.5 864.972L13.5 864.972ZM13.5 857L13.5 853.014L10.5 853.014L10.5 857L13.5 857ZM13.5 849.028L13.5 845.042L10.5 845.042L10.5 849.028L13.5 849.028ZM13.5 841.056L13.5 837.07L10.5 837.07L10.5 841.056L13.5 841.056ZM13.5 833.084L13.5 829.098L10.5 829.098L10.5 833.084L13.5 833.084ZM13.5 825.112L13.5 821.126L10.5 821.126L10.5 825.112L13.5 825.112ZM13.5 817.14L13.5 813.154L10.5 813.154L10.5 817.14L13.5 817.14ZM13.5 809.168L13.5 805.182L10.5 805.182L10.5 809.168L13.5 809.168ZM13.5 801.196L13.5 797.21L10.5 797.21L10.5 801.196L13.5 801.196ZM13.5 793.224L13.5 789.238L10.5 789.238L10.5 793.224L13.5 793.224ZM13.5 785.252L13.5 781.266L10.5 781.266L10.5 785.252L13.5 785.252ZM13.5 777.28L13.5 773.294L10.5 773.294L10.5 777.28L13.5 777.28ZM13.5 769.308L13.5 765.322L10.5 765.322L10.5 769.308L13.5 769.308ZM13.5 761.336L13.5 757.35L10.5 757.35L10.5 761.336L13.5 761.336ZM13.5 753.364L13.5 749.377L10.5 749.377L10.5 753.364L13.5 753.364ZM13.5 745.391L13.5 741.405L10.5 741.405L10.5 745.391L13.5 745.391ZM13.5 737.419L13.5 733.433L10.5 733.433L10.5 737.419L13.5 737.419ZM13.5 729.447L13.5 725.461L10.5 725.461L10.5 729.447L13.5 729.447ZM13.5 721.475L13.5 717.489L10.5 717.489L10.5 721.475L13.5 721.475ZM13.5 713.503L13.5 709.517L10.5 709.517L10.5 713.503L13.5 713.503ZM13.5 705.531L13.5 701.545L10.5 701.545L10.5 705.531L13.5 705.531ZM13.5 697.559L13.5 693.573L10.5 693.573L10.5 697.559L13.5 697.559ZM13.5 689.587L13.5 685.601L10.5 685.601L10.5 689.587L13.5 689.587ZM13.5 681.615L13.5 677.629L10.5 677.629L10.5 681.615L13.5 681.615ZM13.5 673.643L13.5 669.657L10.5 669.657L10.5 673.643L13.5 673.643ZM13.5 665.671L13.5 661.685L10.5 661.685L10.5 665.671L13.5 665.671ZM13.5 657.699L13.5 653.713L10.5 653.713L10.5 657.699L13.5 657.699ZM13.5 649.727L13.5 645.741L10.5 645.741L10.5 649.727L13.5 649.727ZM13.5 641.755L13.5 637.769L10.5 637.769L10.5 641.755L13.5 641.755ZM13.5 633.783L13.5 629.797L10.5 629.797L10.5 633.783L13.5 633.783ZM13.5 625.811L13.5 621.825L10.5 621.825L10.5 625.811L13.5 625.811ZM13.5 617.839L13.5 613.853L10.5 613.853L10.5 617.839L13.5 617.839ZM13.5 609.867L13.5 605.881L10.5 605.881L10.5 609.867L13.5 609.867ZM13.5 601.895L13.5 597.909L10.5 597.909L10.5 601.895L13.5 601.895ZM13.5 593.923L13.5 589.937L10.5 589.937L10.5 593.923L13.5 593.923ZM13.5 585.951L13.5 581.965L10.5 581.965L10.5 585.951L13.5 585.951ZM13.5 577.979L13.5 573.992L10.5 573.992L10.5 577.979L13.5 577.979ZM13.5 570.007L13.5 566.02L10.5 566.02L10.5 570.007L13.5 570.007ZM13.5 562.034L13.5 558.048L10.5 558.048L10.5 562.034L13.5 562.034ZM13.5 554.062L13.5 550.076L10.5 550.076L10.5 554.062L13.5 554.062ZM13.5 546.09L13.5 542.104L10.5 542.104L10.5 546.09L13.5 546.09ZM13.5 538.118L13.5 534.132L10.5 534.132L10.5 538.118L13.5 538.118ZM13.5 530.146L13.5 526.16L10.5 526.16L10.5 530.146L13.5 530.146ZM13.5 522.174L13.5 518.188L10.5 518.188L10.5 522.174L13.5 522.174ZM13.5 514.202L13.5 510.216L10.5 510.216L10.5 514.202L13.5 514.202ZM13.5 506.23L13.5 502.244L10.5 502.244L10.5 506.23L13.5 506.23ZM13.5 498.258L13.5 494.272L10.5 494.272L10.5 498.258L13.5 498.258ZM13.5 490.286L13.5 486.3L10.5 486.3L10.5 490.286L13.5 490.286ZM13.5 482.314L13.5 478.328L10.5 478.328L10.5 482.314L13.5 482.314ZM13.5 474.342L13.5 470.356L10.5 470.356L10.5 474.342L13.5 474.342ZM13.5 466.37L13.5 462.384L10.5 462.384L10.5 466.37L13.5 466.37ZM13.5 458.398L13.5 454.412L10.5 454.412L10.5 458.398L13.5 458.398ZM13.5 450.426L13.5 446.44L10.5 446.44L10.5 450.426L13.5 450.426ZM13.5 442.454L13.5 438.468L10.5 438.468L10.5 442.454L13.5 442.454ZM13.5 434.482L13.5 430.496L10.5 430.496L10.5 434.482L13.5 434.482ZM13.5 426.51L13.5 422.524L10.5 422.524L10.5 426.51L13.5 426.51ZM13.5 418.538L13.5 414.552L10.5 414.552L10.5 418.538L13.5 418.538ZM13.5 410.566L13.5 406.58L10.5 406.58L10.5 410.566L13.5 410.566ZM13.5 402.594L13.5 398.607L10.5 398.607L10.5 402.594L13.5 402.594ZM13.5 394.621L13.5 390.635L10.5 390.635L10.5 394.621L13.5 394.621ZM13.5 386.649L13.5 382.663L10.5 382.663L10.5 386.649L13.5 386.649ZM13.5 378.677L13.5 374.691L10.5 374.691L10.5 378.677L13.5 378.677ZM13.5 370.705L13.5 366.719L10.5 366.719L10.5 370.705L13.5 370.705ZM13.5 362.733L13.5 358.747L10.5 358.747L10.5 362.733L13.5 362.733ZM13.5 354.761L13.5 350.775L10.5 350.775L10.5 354.761L13.5 354.761ZM13.5 346.789L13.5 342.803L10.5 342.803L10.5 346.789L13.5 346.789ZM13.5 338.817L13.5 334.831L10.5 334.831L10.5 338.817L13.5 338.817ZM13.5 330.845L13.5 326.859L10.5 326.859L10.5 330.845L13.5 330.845ZM13.5 322.873L13.5 318.887L10.5 318.887L10.5 322.873L13.5 322.873ZM13.5 314.901L13.5 310.915L10.5 310.915L10.5 314.901L13.5 314.901ZM13.5 306.929L13.5 302.943L10.5 302.943L10.5 306.929L13.5 306.929ZM13.5 298.957L13.5 294.971L10.5 294.971L10.5 298.957L13.5 298.957ZM13.5 290.985L13.5 286.999L10.5 286.999L10.5 290.985L13.5 290.985ZM13.5 283.013L13.5 279.027L10.5 279.027L10.5 283.013L13.5 283.013ZM13.5 275.041L13.5 271.055L10.5 271.055L10.5 275.041L13.5 275.041ZM13.5 267.069L13.5 263.083L10.5 263.083L10.5 267.069L13.5 267.069ZM13.5 259.097L13.5 255.111L10.5 255.111L10.5 259.097L13.5 259.097ZM13.5 251.125L13.5 247.139L10.5 247.139L10.5 251.125L13.5 251.125ZM13.5 243.153L13.5 239.167L10.5 239.167L10.5 243.153L13.5 243.153ZM13.5 235.181L13.5 231.195L10.5 231.195L10.5 235.181L13.5 235.181ZM13.5 227.208L13.5 223.222L10.5 223.222L10.5 227.208L13.5 227.208ZM13.5 219.236L13.5 215.25L10.5 215.25L10.5 219.236L13.5 219.236ZM13.5 211.264L13.5 207.278L10.5 207.278L10.5 211.264L13.5 211.264ZM13.5 203.292L13.5 199.306L10.5 199.306L10.5 203.292L13.5 203.292ZM13.5 195.32L13.5 191.334L10.5 191.334L10.5 195.32L13.5 195.32ZM13.5 187.348L13.5 183.362L10.5 183.362L10.5 187.348L13.5 187.348ZM13.5 179.376L13.5 175.39L10.5 175.39L10.5 179.376L13.5 179.376ZM13.5 171.404L13.5 167.418L10.5 167.418L10.5 171.404L13.5 171.404ZM13.5 163.432L13.5 159.446L10.5 159.446L10.5 163.432L13.5 163.432ZM13.5 155.46L13.5 151.474L10.5 151.474L10.5 155.46L13.5 155.46ZM13.5 147.488L13.5 143.502L10.5 143.502L10.5 147.488L13.5 147.488ZM13.5 139.516L13.5 135.53L10.5 135.53L10.5 139.516L13.5 139.516ZM13.5 131.544L13.5 127.558L10.5 127.558L10.5 131.544L13.5 131.544ZM13.5 123.572L13.5 119.586L10.5 119.586L10.5 123.572L13.5 123.572ZM13.5 115.6L13.5 111.614L10.5 111.614L10.5 115.6L13.5 115.6ZM13.5 107.628L13.5 103.642L10.5 103.642L10.5 107.628L13.5 107.628ZM13.5 99.656L13.5 95.6701L10.5 95.6701L10.5 99.656L13.5 99.656ZM13.5 91.6841L13.5 87.6981L10.5 87.6981L10.5 91.6841L13.5 91.6841ZM13.5 83.7122L13.5 79.7262L10.5 79.7262L10.5 83.7122L13.5 83.7122ZM13.5 75.7402L13.5 71.7543L10.5 71.7543L10.5 75.7402L13.5 75.7402ZM13.5 67.7683L13.5 63.7824L10.5 63.7824L10.5 67.7683L13.5 67.7683ZM13.5 59.7964L13.5 55.8104L10.5 55.8104L10.5 59.7964L13.5 59.7964ZM13.5 51.8244L13.5 47.8385L10.5 47.8385L10.5 51.8244L13.5 51.8244ZM13.5 43.8526L13.5 39.8666L10.5 39.8666L10.5 43.8526L13.5 43.8526ZM13.5 35.8806L13.5 31.8946L10.5 31.8946L10.5 35.8806L13.5 35.8806ZM13.5 27.9087L13.5 23.9228L10.5 23.9228L10.5 27.9087L13.5 27.9087ZM13.5 19.9368L13.5 15.9508L10.5 15.9508L10.5 19.9368L13.5 19.9368ZM13.5 11.9648L13.5 7.97886L10.5 7.97886L10.5 11.9648L13.5 11.9648ZM13.5 3.99295L13.5 2L10.5 2L10.5 3.99295L13.5 3.99295Z" fill="#EF7B45"/>
</svg>
