<svg  viewBox="0 0 10 16" fill="none" xmlns="http://www.w3.org/2000/svg">
<path fill-rule="evenodd" clip-rule="evenodd" d="M3.63672 1.49519C4.40913 0.722655 5.45678 0.288581 6.54922 0.288452H8.66768C8.82375 0.288452 8.97342 0.350451 9.08378 0.460808C9.19414 0.571166 9.25614 0.720844 9.25614 0.876914V3.70153C9.25614 3.8576 9.19414 4.00728 9.08378 4.11763C8.97342 4.22799 8.82375 4.28999 8.66768 4.28999H6.54922C6.53376 4.28999 6.51846 4.29304 6.50418 4.29895C6.4899 4.30486 6.47692 4.31353 6.46599 4.32446C6.45507 4.33539 6.4464 4.34836 6.44048 4.36264C6.43457 4.37692 6.43152 4.39223 6.43152 4.40768V5.93768H8.66768C8.75714 5.93763 8.84543 5.95798 8.92585 5.99718C9.00627 6.03638 9.07669 6.0934 9.13176 6.1639C9.18683 6.2344 9.2251 6.31653 9.24366 6.40405C9.26222 6.49156 9.26059 6.58216 9.23888 6.66894L8.53272 9.49356C8.50087 9.62091 8.42734 9.73396 8.32384 9.81471C8.22034 9.89547 8.0928 9.93929 7.96152 9.93922H6.43152V15C6.43152 15.1561 6.36952 15.3057 6.25917 15.4161C6.14881 15.5265 5.99913 15.5885 5.84306 15.5885H3.01845C2.86238 15.5885 2.7127 15.5265 2.60234 15.4161C2.49198 15.3057 2.42998 15.1561 2.42998 15V9.93922H0.899985C0.743915 9.93922 0.594238 9.87722 0.48388 9.76686C0.373522 9.65651 0.311523 9.50683 0.311523 9.35076V6.52614C0.311523 6.44887 0.326744 6.37235 0.356317 6.30095C0.38589 6.22955 0.429236 6.16468 0.48388 6.11004C0.538523 6.0554 0.603395 6.01205 0.67479 5.98248C0.746186 5.9529 0.822707 5.93768 0.899985 5.93768H2.42998V4.40768C2.43011 3.31524 2.86419 2.2676 3.63672 1.49519ZM6.54922 1.46538C5.76887 1.46538 5.02048 1.77537 4.46869 2.32716C3.9169 2.87895 3.60691 3.62733 3.60691 4.40768V6.52614C3.60691 6.68221 3.54491 6.83189 3.43455 6.94225C3.32419 7.05261 3.17452 7.11461 3.01845 7.11461H1.48845V8.7623H3.01845C3.17452 8.7623 3.32419 8.8243 3.43455 8.93465C3.54491 9.04501 3.60691 9.19469 3.60691 9.35076V14.4115H5.2546V9.35076C5.2546 9.19469 5.3166 9.04501 5.42696 8.93465C5.53731 8.8243 5.68699 8.7623 5.84306 8.7623H7.50174L7.91366 7.11461H5.84306C5.68699 7.11461 5.53731 7.05261 5.42696 6.94225C5.3166 6.83189 5.2546 6.68221 5.2546 6.52614V4.40768C5.2546 4.06433 5.391 3.73504 5.63378 3.49225C5.87657 3.24946 6.20586 3.11307 6.54922 3.11307H8.07922V1.46538H6.54922Z" fill="#CFCFCF"/>
</svg>
