<svg viewBox="0 0 17 16" fill="none" xmlns="http://www.w3.org/2000/svg">
<path d="M11.5672 0.0923462H5.23538C3.99816 0.0938001 2.81205 0.585981 1.93727 1.4609C1.0625 2.33582 0.570521 3.52202 0.569275 4.75924L0.569275 11.0911C0.570729 12.3283 1.06291 13.5144 1.93783 14.3892C2.81275 15.264 3.99895 15.7559 5.23617 15.7572H11.568C12.8052 15.7557 13.9913 15.2636 14.8661 14.3886C15.7409 13.5137 16.2329 12.3275 16.2341 11.0903V4.75845C16.2327 3.52124 15.7405 2.33512 14.8656 1.46035C13.9906 0.585574 12.8044 0.0935921 11.5672 0.0923462ZM14.6586 11.0903C14.6586 11.4963 14.5787 11.8983 14.4233 12.2733C14.2679 12.6484 14.0402 12.9892 13.7532 13.2762C13.4661 13.5633 13.1253 13.791 12.7503 13.9464C12.3752 14.1017 11.9732 14.1817 11.5672 14.1817H5.23538C4.41563 14.1815 3.62953 13.8557 3.04995 13.276C2.47037 12.6962 2.14478 11.9101 2.14478 11.0903V4.75845C2.14499 3.9387 2.47078 3.1526 3.05051 2.57302C3.63023 1.99344 4.41642 1.66785 5.23617 1.66785H11.568C12.3878 1.66806 13.1739 1.99385 13.7534 2.57358C14.333 3.1533 14.6586 3.93949 14.6586 4.75924V11.0903Z"  fill="#f5f5f5"/>
<path d="M8.40126 3.87341C7.32746 3.87507 6.29812 4.30243 5.5389 5.0618C4.77968 5.82116 4.35253 6.85058 4.35107 7.92438C4.35232 8.99846 4.77949 10.0282 5.5389 10.7878C6.29832 11.5473 7.32797 11.9747 8.40204 11.9761C9.47625 11.9749 10.5061 11.5476 11.2657 10.788C12.0253 10.0284 12.4526 8.99859 12.4538 7.92438C12.4521 6.85031 12.0246 5.82074 11.2649 5.06147C10.5052 4.30221 9.47533 3.87524 8.40126 3.8742V3.87341ZM8.40126 10.4006C7.74473 10.4006 7.11508 10.1398 6.65084 9.67558C6.1866 9.21134 5.9258 8.5817 5.9258 7.92517C5.9258 7.26863 6.1866 6.63899 6.65084 6.17475C7.11508 5.71051 7.74473 5.44971 8.40126 5.44971C9.05779 5.44971 9.68744 5.71051 10.1517 6.17475C10.6159 6.63899 10.8767 7.26863 10.8767 7.92517C10.8767 8.5817 10.6159 9.21134 10.1517 9.67558C9.68744 10.1398 9.05779 10.4006 8.40126 10.4006Z"  fill="#f5f5f5"/>
<path d="M12.4609 4.87455C12.9969 4.87455 13.4314 4.44001 13.4314 3.90398C13.4314 3.36795 12.9969 2.93341 12.4609 2.93341C11.9248 2.93341 11.4903 3.36795 11.4903 3.90398C11.4903 4.44001 11.9248 4.87455 12.4609 4.87455Z"  fill="#f5f5f5"/>
</svg>
