<svg viewBox="0 0 18 17" fill="none" xmlns="http://www.w3.org/2000/svg">
<path d="M16.0742 0.860836C15.8617 0.876298 15.6531 0.926156 15.4565 1.00847H15.4539C15.2652 1.08327 14.3682 1.46062 13.0044 2.03261L8.1174 4.09083C4.61068 5.56713 1.16355 7.02092 1.16355 7.02092L1.20459 7.00504C1.20459 7.00504 0.966928 7.08315 0.71867 7.25329C0.565299 7.35089 0.433323 7.47859 0.330727 7.62866C0.208916 7.8074 0.110937 8.08082 0.147348 8.3635C0.20693 8.84148 0.516755 9.12813 0.739193 9.28635C0.96428 9.44656 1.17877 9.52137 1.17877 9.52137H1.18407L4.41671 10.6104C4.56169 11.0758 5.40179 13.8377 5.60371 14.4739C5.72287 14.8539 5.83873 15.0916 5.98371 15.273C6.05388 15.3657 6.13597 15.4431 6.23461 15.5054C6.28589 15.5352 6.34057 15.5588 6.39747 15.5755L6.36437 15.5676C6.3743 15.5702 6.38224 15.5782 6.38953 15.5808C6.41601 15.5881 6.43388 15.5908 6.46765 15.5961C6.97939 15.751 7.3905 15.4332 7.3905 15.4332L7.41367 15.4147L9.32227 13.6769L12.5211 16.131L12.594 16.1621C13.2606 16.4547 13.9359 16.2918 14.2927 16.0045C14.6522 15.7152 14.7919 15.3452 14.7919 15.3452L14.815 15.2856L17.287 2.62181C17.3572 2.30933 17.3751 2.01672 17.2976 1.73271C17.2177 1.44528 17.0333 1.19807 16.7806 1.03958C16.5684 0.910563 16.3223 0.848289 16.0742 0.860836ZM16.0073 2.21797C16.0047 2.25968 16.0126 2.25505 15.9941 2.33515V2.34243L13.5453 14.8745C13.5347 14.8923 13.5168 14.9314 13.4678 14.9705C13.4162 15.0115 13.3752 15.0373 13.16 14.9519L9.24746 11.9523L6.88405 14.1065L7.38057 10.9354L13.773 4.97727C14.0365 4.73232 13.9485 4.68069 13.9485 4.68069C13.967 4.38013 13.5506 4.59264 13.5506 4.59264L5.48984 9.58625L5.48719 9.57301L1.62365 8.27214V8.26949L1.61372 8.26751C1.62049 8.26526 1.62713 8.2626 1.63358 8.25956L1.65477 8.24897L1.67529 8.24169C1.67529 8.24169 5.12507 6.78789 8.63179 5.31159C10.3875 4.57211 12.1564 3.82734 13.5168 3.25271C14.3237 2.9131 15.1313 2.57547 15.9398 2.23982C15.9941 2.21864 15.9683 2.21797 16.0073 2.21797Z"  fill="#f5f5f5"/>
</svg>
