<svg viewBox="0 0 36 36" fill="none" xmlns="http://www.w3.org/2000/svg">
<path d="M18 19.9848C19.077 19.9848 20.1293 20.2941 21.0219 20.8731C21.9145 21.4521 22.6064 22.2743 23.009 23.2341C23.4115 24.1938 23.5061 25.2473 23.2807 26.2592C23.0553 27.271 22.5201 28.1949 21.744 28.9123L18.306 32.0911H23.4V35.55H12.6L12.5982 32.5684L19.2474 26.4202C19.4619 26.222 19.622 25.9758 19.7133 25.7037C19.8045 25.4316 19.8241 25.1419 19.7703 24.8607C19.7166 24.5795 19.591 24.3155 19.405 24.0923C19.219 23.8691 18.9783 23.6937 18.7044 23.5818C18.4306 23.4699 18.1321 23.425 17.8358 23.4511C17.5394 23.4772 17.2545 23.5734 17.0063 23.7313C16.7582 23.8891 16.5547 24.1036 16.4139 24.3555C16.2732 24.6075 16.1997 24.889 16.2 25.1749H12.6C12.5998 24.4934 12.7393 23.8186 13.0105 23.1889C13.2818 22.5592 13.6795 21.987 14.181 21.5051C14.6824 21.0231 15.2778 20.6408 15.9331 20.3799C16.5884 20.1191 17.2907 19.9848 18 19.9848ZM28.8 19.9848V26.9027H32.4V19.9848H36V35.55H32.4V30.3616H25.2V19.9848H28.8ZM3.6 18.2554C3.59778 20.33 4.08209 22.3785 5.01696 24.2486C5.95182 26.1187 7.31321 27.7624 9 29.0576V33.236C6.2627 31.7183 3.98972 29.5347 2.40979 26.9049C0.829862 24.2751 -0.00128061 21.2918 1.48104e-06 18.2554H3.6ZM18 0.960698C27.333 0.960698 35.0082 7.7869 35.91 16.5259H32.2884C31.9228 13.7371 30.682 11.1213 28.7309 9.02683C26.7799 6.93232 24.2113 5.45837 21.3669 4.80114C18.5225 4.14392 15.5372 4.33458 12.8084 5.34775C10.0795 6.36093 7.73652 8.14856 6.0912 10.4728H10.8V13.9317H1.48104e-06V3.5549H3.6V7.87856C5.27519 5.72914 7.449 3.98469 9.94873 2.7838C12.4485 1.58291 15.2052 0.958681 18 0.960698Z" fill="#EF7B45"/>
</svg>
