<svg viewBox="0 0 36 36" fill="none" xmlns="http://www.w3.org/2000/svg">
<path d="M2.8 35.083L15.4 22.9767C16.4 23.7454 17.55 24.3539 18.85 24.8023C20.15 25.2506 21.5333 25.4748 23 25.4748C26.6333 25.4748 29.708 24.2655 32.224 21.8468C34.74 19.4281 35.9987 16.4739 36 12.9842C36 9.49328 34.7413 6.5391 32.224 4.12169C29.7067 1.70428 26.632 0.494933 23 0.493652C19.3667 0.493652 16.292 1.703 13.776 4.12169C11.26 6.54038 10.0013 9.49456 10 12.9842C10 14.3934 10.2333 15.7226 10.7 16.9716C11.1667 18.2207 11.8 19.3256 12.6 20.2864L0 32.3927L2.8 35.083ZM23 21.6316C20.5 21.6316 18.3747 20.7905 16.624 19.1085C14.8733 17.4264 13.9987 15.385 14 12.9842C14 10.5822 14.8753 8.54015 16.626 6.85809C18.3767 5.17602 20.5013 4.33563 23 4.33691C25.5 4.33691 27.6253 5.17794 29.376 6.86001C31.1267 8.54207 32.0013 10.5835 32 12.9842C32 15.3863 31.1247 17.4283 29.374 19.1104C27.6233 20.7925 25.4987 21.6328 23 21.6316Z" fill="#EF7B45"/>
<path d="M16 15.8667L18.7516 12.562C18.9766 12.2918 19.2818 12.14 19.6 12.14C19.9182 12.14 20.2234 12.2918 20.4484 12.562L22.3516 14.8478C22.5766 15.1179 22.8818 15.2697 23.2 15.2697C23.5182 15.2697 23.8234 15.1179 24.0484 14.8478L28 10.1018M28 10.1018V13.7049M28 10.1018H25" stroke="#EF7B45" stroke-width="1.5" stroke-linecap="round" stroke-linejoin="round"/>
</svg>
