<svg viewBox="0 0 34 34" fill="none" xmlns="http://www.w3.org/2000/svg">
<path d="M17 19.125C22.6737 19.125 34 21.9725 34 27.625V34H0V27.625C0 21.9725 11.3262 19.125 17 19.125ZM17 0C19.2543 0 21.4163 0.895533 23.0104 2.48959C24.6045 4.08365 25.5 6.24566 25.5 8.5C25.5 10.7543 24.6045 12.9163 23.0104 14.5104C21.4163 16.1045 19.2543 17 17 17C14.7457 17 12.5837 16.1045 10.9896 14.5104C9.39553 12.9163 8.5 10.7543 8.5 8.5C8.5 6.24566 9.39553 4.08365 10.9896 2.48959C12.5837 0.895533 14.7457 0 17 0ZM17 23.1625C10.6887 23.1625 4.0375 26.265 4.0375 27.625V29.9625H29.9625V27.625C29.9625 26.265 23.3112 23.1625 17 23.1625ZM17 4.0375C15.8165 4.0375 14.6814 4.50765 13.8445 5.34454C13.0077 6.18142 12.5375 7.31647 12.5375 8.5C12.5375 9.68353 13.0077 10.8186 13.8445 11.6555C14.6814 12.4923 15.8165 12.9625 17 12.9625C18.1835 12.9625 19.3186 12.4923 20.1555 11.6555C20.9923 10.8186 21.4625 9.68353 21.4625 8.5C21.4625 7.31647 20.9923 6.18142 20.1555 5.34454C19.3186 4.50765 18.1835 4.0375 17 4.0375Z" fill="#EF7B45"/>
</svg>
