<svg viewBox="0 0 31 33" fill="none" xmlns="http://www.w3.org/2000/svg">
<path d="M26.8205 2.10474H5.02562C4.44758 2.10474 3.89322 2.35781 3.48449 2.80828C3.07575 3.25875 2.84613 3.86971 2.84613 4.50677V28.5271C2.84613 29.1642 3.07575 29.7752 3.48449 30.2256C3.89322 30.6761 4.44758 30.9292 5.02562 30.9292H26.8205C27.3985 30.9292 27.9529 30.6761 28.3616 30.2256C28.7704 29.7752 29 29.1642 29 28.5271V4.50677C29 3.86971 28.7704 3.25875 28.3616 2.80828C27.9529 2.35781 27.3985 2.10474 26.8205 2.10474Z" stroke="#EF7B45" stroke-width="4" stroke-linecap="round" stroke-linejoin="round"/>
<path d="M13.7436 22.1216L17.376 25.3244L23.188 17.3176M8.6581 9.31079H23.188M8.6581 15.7162H14.4701" stroke="#EF7B45" stroke-width="4" stroke-linecap="round" stroke-linejoin="round"/>
</svg>
