<svg viewBox="0 0 36 35" fill="none" xmlns="http://www.w3.org/2000/svg">
<path d="M6.46487 13.7794L9.96668 15.2012C10.3857 14.397 10.8197 13.6215 11.2686 12.8747C11.7176 12.1279 12.2114 11.3811 12.7502 10.6343L10.236 10.1603L6.46487 13.7794ZM12.84 17.3555L17.958 22.224C19.215 21.7645 20.5619 21.0607 21.9985 20.1129C23.4352 19.165 24.782 18.0879 26.0391 16.8815C28.1342 14.8709 29.7731 12.638 30.956 10.1827C32.1388 7.72748 32.6548 5.46525 32.5039 3.39604C30.349 3.25243 27.9845 3.74819 25.4105 4.88332C22.8366 6.01846 20.502 7.59076 18.4069 9.60023C17.1499 10.8066 16.0275 12.0991 15.0398 13.4778C14.0521 14.8566 13.3188 16.1491 12.84 17.3555ZM20.8313 14.555C20.1429 13.8943 19.7987 13.0832 19.7987 12.1215C19.7987 11.1599 20.1429 10.3482 20.8313 9.6864C21.5196 9.02577 22.3727 8.69545 23.3903 8.69545C24.4079 8.69545 25.2609 9.02577 25.9493 9.6864C26.6377 10.347 26.9819 11.1587 26.9819 12.1215C26.9819 13.0843 26.6377 13.8955 25.9493 14.555C25.2609 15.2156 24.4079 15.5459 23.3903 15.5459C22.3727 15.5459 21.5196 15.2156 20.8313 14.555ZM21.6843 28.3851L25.4554 24.766L24.9616 22.3533C24.1834 22.8703 23.4052 23.3368 22.6271 23.7527C21.8489 24.1686 21.0408 24.5782 20.2027 24.9814L21.6843 28.3851ZM35.7364 0.250864C36.3051 3.72636 35.9537 7.10879 34.6823 10.3982C33.4108 13.6875 31.2182 16.8247 28.1042 19.8096L29.0021 24.0767C29.1219 24.6511 29.0919 25.2112 28.9123 25.757C28.7328 26.3027 28.4335 26.7766 28.0144 27.1788L20.4721 34.417L16.7009 25.9293L9.02388 18.5618L0.17958 14.9427L7.67704 7.7045C8.09606 7.30238 8.59768 7.01515 9.18192 6.84281C9.76615 6.67047 10.357 6.64175 10.9544 6.75664L15.399 7.61833C18.5117 4.63113 21.7741 2.51999 25.1861 1.2849C28.5981 0.0498024 32.1149 -0.294875 35.7364 0.250864ZM3.36712 24.0336C4.41467 23.0283 5.69448 22.5187 7.20654 22.5049C8.7186 22.4912 9.99781 22.9863 11.0442 23.9905C12.0917 24.9958 12.6083 26.224 12.5939 27.6751C12.5796 29.1262 12.048 30.3538 10.9993 31.358C10.251 32.076 9.00174 32.6936 7.25143 33.2106C5.50113 33.7276 3.08398 34.1872 0 34.5893C0.41902 31.6308 0.897899 29.3112 1.43664 27.6303C1.97538 25.9494 2.61887 24.7505 3.36712 24.0336ZM5.92613 26.4463C5.62683 26.7336 5.32753 27.258 5.02823 28.0198C4.72893 28.7815 4.51943 29.5496 4.39971 30.3239C5.20781 30.209 6.00874 30.0149 6.80248 29.7414C7.59623 29.468 8.14215 29.1882 8.44025 28.9021C8.79941 28.5575 8.99395 28.141 9.02388 27.6527C9.05381 27.1644 8.8892 26.7479 8.53004 26.4032C8.17088 26.0586 7.7369 25.8931 7.22809 25.9069C6.71928 25.9207 6.28529 26.1005 5.92613 26.4463Z" fill="#EF7B45"/>
</svg>
